<svg xmlns="http://www.w3.org/2000/svg" viewBox="0 0 128 128" role="img" aria-labelledby="title">
<title>Veni Publishing crest</title>
<path d="M64 7 105 20v36c0 29-16 50-41 64C39 106 23 85 23 56V20L64 7Z" fill="#0e2f2b" stroke="#b88a3c" stroke-width="5"/>
<path d="M40 37 58 88h12l18-51H76L64 74 52 37Z" fill="#f6efdf"/>
<path d="M20 91c11 14 25 23 44 29M108 91c-11 14-25 23-44 29" fill="none" stroke="#b88a3c" stroke-width="4" stroke-linecap="round"/>
<path d="M20 91 9 84M26 99l-12-2M34 107l-11 4M108 91l11-7M102 99l12-2M94 107l11 4" stroke="#b88a3c" stroke-width="4" stroke-linecap="round"/>
</svg>